HIERARCHY
ROOT hip
{
  OFFSET 0 0 0
  CHANNELS 6 Xposition Yposition Zposition Zrotation Yrotation Xrotation
  JOINT abdomen
  {
    OFFSET 0 20.6881 -0.73152
    CHANNELS 3 Zrotation Xrotation Yrotation
    JOINT chest
    {
      OFFSET 0 11.7043 -0.48768
      CHANNELS 3 Zrotation Xrotation Yrotation
      JOINT neck
      {
        OFFSET 0 22.1894 -2.19456
        CHANNELS 3 Zrotation Xrotation Yrotation
        JOINT head
        {
          OFFSET -0.24384 7.07133 1.2192
          CHANNELS 3 Zrotation Xrotation Yrotation
          JOINT leftEye
          {
            OFFSET 4.14528 8.04674 8.04672
            CHANNELS 3 Zrotation Xrotation Yrotation
            End Site
            {
              OFFSET 1 0 0
            }
          }
          JOINT rightEye
          {
            OFFSET -3.6576 8.04674 8.04672
            CHANNELS 3 Zrotation Xrotation Yrotation
            End Site
            {
              OFFSET 1 0 0
            }
          }
        }
      }
      JOINT rCollar
      {
        OFFSET -2.68224 19.2634 -4.8768
        CHANNELS 3 Zrotation Xrotation Yrotation
        JOINT rShldr
        {
          OFFSET -8.77824 -1.95073 1.46304
          CHANNELS 3 Zrotation Xrotation Yrotation
          JOINT rForeArm
          {
            OFFSET -28.1742 -1.7115 0.48768
            CHANNELS 3 Zrotation Xrotation Yrotation
            JOINT rHand
            {
              OFFSET -22.5879 0.773209 7.07136
              CHANNELS 3 Zrotation Xrotation Yrotation
              JOINT rThumb1
              {
                OFFSET -1.2192 -0.487915 3.41376
                CHANNELS 3 Zrotation Xrotation Yrotation
                JOINT rThumb2
                {
                  OFFSET -3.37035 -0.52449 3.41376
                  CHANNELS 3 Zrotation Xrotation Yrotation
                  End Site
                  {
                    OFFSET -1.78271 -1.18214 1.43049
                  }
                }
              }
              JOINT rIndex1
              {
                OFFSET -7.75947 0.938293 5.60832
                CHANNELS 3 Zrotation Xrotation Yrotation
                JOINT rIndex2
                {
                  OFFSET -2.54057 -0.884171 1.56538
                  CHANNELS 3 Zrotation Xrotation Yrotation
                  End Site
                  {
                    OFFSET -1.62519 -0.234802 1.16502
                  }
                }
              }
              JOINT rMid1
              {
                OFFSET -8.24714 1.18213 3.41376
                CHANNELS 3 Zrotation Xrotation Yrotation
                JOINT rMid2
                {
                  OFFSET -3.10165 -0.590103 1.0647
                  CHANNELS 3 Zrotation Xrotation Yrotation
                  End Site
                  {
                    OFFSET -2.48547 -0.328903 0.83742
                  }
                }
              }
              JOINT rRing1
              {
                OFFSET -8.82822 0.546677 1.51678
                CHANNELS 3 Zrotation Xrotation Yrotation
                JOINT rRing2
                {
                  OFFSET -2.60934 -0.819778 -0.0198488
                  CHANNELS 3 Zrotation Xrotation Yrotation
                  End Site
                  {
                    OFFSET -2.33842 -0.294052 0.168128
                  }
                }
              }
              JOINT rPinky1
              {
                OFFSET -8.27202 -0.0477905 -0.4584
                CHANNELS 3 Zrotation Xrotation Yrotation
                JOINT rPinky2
                {
                  OFFSET -1.82734 -0.647385 -0.700984
                  CHANNELS 3 Zrotation Xrotation Yrotation
                  End Site
                  {
                    OFFSET -1.69225 -0.51767 -0.607171
                  }
                }
              }
            }
          }
        }
      }
      JOINT lCollar
      {
        OFFSET 2.68224 19.2634 -4.8768
        CHANNELS 3 Zrotation Xrotation Yrotation
        JOINT lShldr
        {
          OFFSET 8.77824 -1.95073 1.46304
          CHANNELS 3 Zrotation Xrotation Yrotation
          JOINT lForeArm
          {
            OFFSET 28.1742 -1.7115 0.48768
            CHANNELS 3 Zrotation Xrotation Yrotation
            JOINT lHand
            {
              OFFSET 22.5879 0.773209 7.07136
              CHANNELS 3 Zrotation Xrotation Yrotation
              JOINT lThumb1
              {
                OFFSET 1.2192 -0.487915 3.41376
                CHANNELS 3 Zrotation Xrotation Yrotation
                JOINT lThumb2
                {
                  OFFSET 3.37035 -0.52449 3.41376
                  CHANNELS 3 Zrotation Xrotation Yrotation
                  End Site
                  {
                    OFFSET 1.78271 -1.18214 1.43049
                  }
                }
              }
              JOINT lIndex1
              {
                OFFSET 7.75947 0.938293 5.60832
                CHANNELS 3 Zrotation Xrotation Yrotation
                JOINT lIndex2
                {
                  OFFSET 2.54057 -0.884171 1.56538
                  CHANNELS 3 Zrotation Xrotation Yrotation
                  End Site
                  {
                    OFFSET 1.62519 -0.234802 1.16502
                  }
                }
              }
              JOINT lMid1
              {
                OFFSET 8.24714 1.18213 3.41376
                CHANNELS 3 Zrotation Xrotation Yrotation
                JOINT lMid2
                {
                  OFFSET 3.10165 -0.590103 1.0647
                  CHANNELS 3 Zrotation Xrotation Yrotation
                  End Site
                  {
                    OFFSET 2.48547 -0.328903 0.83742
                  }
                }
              }
              JOINT lRing1
              {
                OFFSET 8.82822 0.546677 1.51678
                CHANNELS 3 Zrotation Xrotation Yrotation
                JOINT lRing2
                {
                  OFFSET 2.60934 -0.819778 -0.0198488
                  CHANNELS 3 Zrotation Xrotation Yrotation
                  End Site
                  {
                    OFFSET 2.33842 -0.294052 0.168128
                  }
                }
              }
              JOINT lPinky1
              {
                OFFSET 8.27202 -0.0477905 -0.4584
                CHANNELS 3 Zrotation Xrotation Yrotation
                JOINT lPinky2
                {
                  OFFSET 1.82734 -0.647385 -0.700984
                  CHANNELS 3 Zrotation Xrotation Yrotation
                  End Site
                  {
                    OFFSET 1.69225 -0.51767 -0.607171
                  }
                }
              }
            }
          }
        }
      }
    }
  }
  JOINT rButtock
  {
    OFFSET -8.77824 4.35084 1.2192
    CHANNELS 3 Zrotation Xrotation Yrotation
    JOINT rThigh
    {
      OFFSET 0 -1.70687 -2.19456
      CHANNELS 3 Zrotation Xrotation Yrotation
      JOINT rShin
      {
        OFFSET 0 -36.8199 0.73152
        CHANNELS 3 Zrotation Xrotation Yrotation
        JOINT rFoot
        {
          OFFSET 0.73152 -45.1104 -5.12064
          CHANNELS 3 Zrotation Xrotation Yrotation
          End Site
          {
            OFFSET -1.1221 -3.69964 12.103
          }
        }
      }
    }
  }
  JOINT lButtock
  {
    OFFSET 8.77824 4.35084 1.2192
    CHANNELS 3 Zrotation Xrotation Yrotation
    JOINT lThigh
    {
      OFFSET 0 -1.70687 -2.19456
      CHANNELS 3 Zrotation Xrotation Yrotation
      JOINT lShin
      {
        OFFSET 0 -36.8199 0.73152
        CHANNELS 3 Zrotation Xrotation Yrotation
        JOINT lFoot
        {
          OFFSET -0.73152 -45.1104 -5.12064
          CHANNELS 3 Zrotation Xrotation Yrotation
          End Site
          {
            OFFSET 1.1221 -3.69964 12.103
          }
        }
      }
    }
  }
}
MOTION
Frames:	5
Frame Time:	0.03333
-91.5447 58.72880000000001 -15.5226 122.887346 74.495589 130.479961 -19.6928 10.297406 2.821746 5.796291 -10.589032 -3.897583 -14.83833 27.059071 -97.22391 36.026374 14.156018 71.426859 0.002931 0.0 0.001749 -0.002761 -0.0 0.002295 -44.927562 -86.28723 -66.53524 -174.947227 3.578098 -135.533495 5.960463 -81.569353 44.160259 -8.19248 37.108373 2.946189 -95.36095 37.750191 54.6825 -130.921259 -18.853431 76.452759 146.680295 -73.258247 91.63568 165.989267 -58.4461 98.911552 173.123153 -66.297721 137.614374 -156.068091 15.555191 139.6189 -145.10114 -1.521168 -178.650277 -144.867245 -50.915245 -167.284922 -146.223588 15.470362 -142.748712 -77.994585 -52.813658 -77.515952 158.468108 -30.055638 -166.919535 36.000557 22.813621 25.388053 -1.189325 -37.535132 74.47155 -165.308581 -28.959946 -141.538249 1.19236 1.174783 -0.19538 141.101873 -46.913076 -119.219603 166.864441 -44.037474 -122.053479 31.324022 50.514592 -21.134119 160.673016 -6.667513 -143.246515 -2.870118 1.019838 -0.497513 70.378997 -72.130841 87.279559 -12.007089 45.815055 -2.711728 74.133079 -51.747339 72.61784 -22.722723 60.447993 -7.822308 0.007956 0.000117 0.003978 -67.281566 -64.822867 110.752227 76.055849 -78.28818 -21.380164 0.745095 -43.077844 -74.222351 -179.998796 75.748975 -0.001242 -173.074426 84.480566 -11.301388 -16.380588 32.91628 -29.419639 172.417512 13.932583 -87.278777
-91.7686 58.9769 -15.398200000000001 124.150861 75.148851 131.694819 -16.614228 7.571304 -90.470689 7.811527 3.710533 88.196839 -10.010565 14.932896 -20.009869 14.531268 -21.328846 0.318402 -0.002223 0.0 -0.004545 -0.002223 0.0 -0.004545 -13.743786 42.431471 15.569535 53.15174 11.533512 37.180575 -10.688613 -27.686808 33.228342 -3.234602 23.7889 2.007869 -177.74726 -15.324405 89.568896 -77.87393 8.678093 24.563694 -152.104994 -18.556503 121.368092 95.789752 -70.679247 42.542426 -171.805031 -40.922132 145.169587 -34.853749 54.922791 29.419245 0.000802 -0.061052 -0.017793 -155.425464 -1.358036 172.014088 21.194589 71.643387 12.913109 -147.321206 8.297413 -142.068311 159.221511 -48.724979 -170.567493 -175.616803 -26.733263 135.25382 33.265334 -28.003233 -9.519506 -5.025681 -12.974228 -1.586571 175.19794 -12.84629 -89.806912 142.202635 10.0063 -73.305809 0.326479 0.530282 -0.185732 -9.806988 2.503084 0.154453 -2.100417 -6.305467 1.080103 -2.922152 0.840944 -0.085759 0.014889 -1.322997 0.416881 -10.087381 4.608627 -0.52652 0.52982 -1.363967 0.491061 151.749902 27.401124 146.918663 -179.978758 75.75032 -0.017477 157.614997 0.072081 -0.439152 -83.265722 83.031434 -138.727912 -121.519683 -29.171631 161.151773 179.999254 75.749319 0.0 -172.109234 81.882416 -180.0 8.29715 -37.905255 133.909619 173.667623 9.905286 -91.370157
-91.9615 59.300399999999996 -15.235000000000001 125.839638 75.448316 133.503146 -18.365791 9.578906 0.0 6.005009 -10.130114 -1.555211 6.644045 23.654658 101.996959 -31.411395 17.144228 -121.010853 -0.004024 -0.0 0.000482 0.001669 -0.0 -8.5e-05 -153.591651 -75.693497 -178.261582 -44.864956 -26.211662 -50.904633 164.692415 32.989975 -131.142885 -18.53291 57.404456 8.873678 83.254218 -50.258296 33.615533 -93.01682 38.665953 55.788827 -108.427478 34.160246 91.742418 -172.194044 -24.941463 115.589853 -36.035792 51.723085 29.832561 32.224093 -62.660916 8.454389 0.001113 0.022449 0.008215 -156.561562 -29.870427 175.353574 -150.033962 28.966711 -145.933823 -148.447775 13.382177 -142.123608 -0.035026 -0.209388 0.046722 -69.730887 21.130253 -8.449106 4.597872 5.268901 -36.727871 4.520998 18.202956 -0.633915 -178.33904 -19.018524 -88.988734 -174.132602 -23.345286 -102.633501 166.821395 -43.97381 -122.062022 165.668415 -29.124684 -118.280383 171.806362 -40.921873 -145.169852 -29.803534 -60.099932 -7.048001 67.606676 -72.074389 84.374082 -14.054763 26.370291 0.924468 -12.252279 41.424766 -10.282733 -0.928619 -2.177144 0.977236 0.0 -0.001307 0.000215 -61.434749 -64.445205 116.158942 84.658437 -68.100403 163.856653 70.23487 -52.241256 164.609436 -179.954875 75.749218 -0.03478 -164.996425 83.626745 -26.646667 -25.493875 33.670346 -67.817986 118.778599 -29.31269 179.818179
-92.13170000000001 59.675900000000006 -15.0521 127.367677 75.679445 135.379916 -15.594579 6.889431 -88.176329 8.006241 3.165288 85.293513 -13.759299 27.986632 -105.25087 35.239792 18.812666 78.465779 0.000219 0.0 0.002198 0.000219 0.0 0.002198 -13.946012 42.750788 15.783132 -112.19508 -4.322434 142.482757 -105.961626 -30.230916 -139.478865 22.856896 -40.973449 15.272535 -12.926679 12.051605 3.309242 32.994416 -40.178643 -8.782206 17.768338 -31.918522 -5.954006 -162.129755 -19.870643 111.132725 -0.571114 1.648516 0.320386 -34.365578 55.162177 28.97321 -145.120737 1.975075 -179.747574 -154.313917 -12.530513 -177.50575 -26.565163 -38.860726 -25.605789 -153.936705 37.623919 -148.089375 14.14886 43.061412 -15.996979 81.342451 17.436153 -126.319592 -15.412599 30.962586 73.806679 -168.651846 -16.907492 -144.333413 68.055141 37.899658 -35.360036 149.127461 -35.414969 -85.807437 151.352595 -17.158704 -121.132817 -15.445782 -8.836229 10.688314 -2.09991 -6.305404 1.082116 154.099979 20.056966 -138.721328 4.8e-05 0.022446 -0.008119 -7.020985 29.091727 -4.545523 138.44422 -6.230524 135.659925 -46.301123 79.961175 9.641698 0.001581 -0.000316 0.000791 -59.217541 -62.788873 32.017451 82.501153 4.371104 0.693155 -32.40863 48.018272 -51.460622 179.9958 75.749958 0.003706 -165.133313 83.366396 -14.73777 -16.565916 36.612867 -73.082418 12.617093 37.682808 116.380961
-92.20439999999999 60.016099999999994 -14.9342 127.821292 75.743912 136.164052 -17.998828 8.814058 2.084476 5.578104 -10.472589 -4.304473 -14.088416 27.380303 -99.479201 36.293424 15.826874 73.664687 0.000555 -0.0 -0.000884 0.000555 -0.0 -0.000884 -5.825325 24.93711 6.990715 -52.47526 62.064568 118.8741 2.051211 62.138678 -73.19061 156.00895 -36.991999 138.688862 -85.829108 38.631392 47.955667 -123.6682 -17.478364 77.707619 -0.326865 0.530162 0.185811 -177.877948 -34.334306 106.354299 68.985694 -80.153402 40.580533 -7.587041 26.1253 6.221349 -145.122305 1.975639 -179.748414 -151.999741 -28.057269 -174.717024 26.977004 80.122432 10.134081 -139.50858 -11.643988 -135.44312 149.905022 22.421655 -154.97505 62.974208 13.087157 -27.364535 -6.810232 -3.923247 65.956014 -163.491608 -27.657093 -142.062394 85.829588 38.629586 -47.955315 127.134664 -19.14767 -78.52634 108.428172 34.161029 -91.742709 -8.232664 -3.256125 6.944525 82.840448 61.110641 -74.53238 162.813551 -3.976988 -143.084101 145.119326 0.185225 179.18709 -12.122762 44.800196 3.851571 -11.405795 38.078322 -9.69401 148.552246 13.350048 143.832189 0.000796 0.000408 0.000398 -55.93603 -64.650385 -145.522814 -80.759691 -17.595971 27.775567 143.649795 27.234424 -50.439735 179.996935 75.750978 0.002097 -167.827995 80.913923 174.595346 -1.663225 -46.917964 -42.801913 -34.849523 62.600429 -79.419132
